<?xml version="1.0" encoding="UTF-8"?>
<svg id="Capa_1" data-name="Capa 1" xmlns="http://www.w3.org/2000/svg" xmlns:xlink="http://www.w3.org/1999/xlink" viewBox="0 0 2000 2000">
  <defs>
    <style>
      .cls-1, .cls-2 {
        fill: #ffebcd;
      }

      .cls-3 {
        stroke: #3c63a7;
      }

      .cls-3, .cls-4, .cls-5 {
        fill: none;
      }

      .cls-3, .cls-5 {
        stroke-miterlimit: 10;
        stroke-width: 5px;
      }

      .cls-4, .cls-2 {
        stroke-width: 0px;
      }

      .cls-6 {
        clip-path: url(#clippath-1);
      }

      .cls-7 {
        clip-path: url(#clippath);
      }

      .cls-5 {
        stroke: peru;
      }
    </style>
    <clipPath id="clippath">
      <rect class="cls-4" width="2000" height="2000"/>
    </clipPath>
    <clipPath id="clippath-1">
      <rect class="cls-2" x="-34.09" y="-34.09" width="2068.17" height="2068.17"/>
    </clipPath>
  </defs>
  <g class="cls-7">
    <g>
      <rect class="cls-1" x="-34.09" y="-34.09" width="2068.17" height="2068.17"/>
      <g class="cls-6">
        <path class="cls-3" d="M160.61,80.7c7.29,1.6,15.22-.43,20.88-6.1,8.85-8.85,8.85-23.19,0-32.03-8.85-8.85-23.19-8.85-32.03,0-.86.86-1.63,1.77-2.32,2.72L72.19-29.66c.95-.69,1.86-1.47,2.72-2.32,8.85-8.85,8.85-23.19,0-32.03-8.85-8.85-23.19-8.85-32.03,0-5.67,5.67-7.7,13.59-6.1,20.88-7.29-1.6-15.22.43-20.88,6.1C7.05-28.19,7.05-13.85,15.89-5c8.85,8.85,23.19,8.85,32.03,0,.86-.86,1.63-1.77,2.32-2.72l74.95,74.95c-.95.69-1.86,1.47-2.72,2.32-8.85,8.85-8.85,23.19,0,32.03,8.85,8.85,23.19,8.85,32.03,0,5.67-5.67,7.7-13.59,6.1-20.88Z"/>
        <path class="cls-5" d="M119.86,292.36h-21.11c-3.08,0-6.04-1.23-8.22-3.41l-2.26-2.26c-9.49-9.49-25.03-9.49-34.52,0h0c-9.49,9.49-9.49,25.03,0,34.52l2.26,2.26c2.18,2.18,3.41,5.14,3.41,8.22v21.11c0,13.42,10.98,24.41,24.41,24.41h0c13.42,0,24.41-10.98,24.41-24.41h0c0-6.42,5.21-11.63,11.63-11.63h0c13.42,0,24.41-10.98,24.41-24.41h0c0-13.42-10.98-24.41-24.41-24.41Z"/>
        <ellipse class="cls-5" cx="24.38" cy="330.54" rx="19.32" ry="22.08" transform="translate(-301.21 268.54) rotate(-75)"/>
        <ellipse class="cls-5" cx="21.68" cy="284.13" rx="19.32" ry="22.08" transform="translate(-247.98 192.01) rotate(-66.78)"/>
        <ellipse class="cls-5" cx="98.69" cy="256.22" rx="19.32" ry="22.08" transform="translate(-62.95 34.27) rotate(-15)"/>
        <ellipse class="cls-5" cx="52.28" cy="253.52" rx="19.32" ry="22.08" transform="translate(-95.73 41.15) rotate(-23.22)"/>
        <path class="cls-3" d="M160.61,2080.7c7.29,1.6,15.22-.43,20.88-6.1,8.85-8.85,8.85-23.19,0-32.03-8.85-8.85-23.19-8.85-32.03,0-.86.86-1.63,1.77-2.32,2.72l-74.95-74.95c.95-.69,1.86-1.47,2.72-2.32,8.85-8.85,8.85-23.19,0-32.03-8.85-8.85-23.19-8.85-32.03,0-5.67,5.67-7.7,13.59-6.1,20.88-7.29-1.6-15.22.43-20.88,6.1-8.85,8.85-8.85,23.19,0,32.03,8.85,8.85,23.19,8.85,32.03,0,.86-.86,1.63-1.77,2.32-2.72l74.95,74.95c-.95.69-1.86,1.47-2.72,2.32-8.85,8.85-8.85,23.19,0,32.03,8.85,8.85,23.19,8.85,32.03,0,5.67-5.67,7.7-13.59,6.1-20.88Z"/>
        <path class="cls-3" d="M101.16,750.64c7.29,1.6,15.22-.43,20.88-6.1,8.85-8.85,8.85-23.19,0-32.03-8.85-8.85-23.19-8.85-32.03,0-.86.86-1.63,1.77-2.32,2.72l-74.95-74.95c.95-.69,1.86-1.47,2.72-2.32,8.85-8.85,8.85-23.19,0-32.03s-23.19-8.85-32.03,0c-5.67,5.67-7.7,13.59-6.1,20.88-7.29-1.6-15.22.43-20.88,6.1-8.85,8.85-8.85,23.19,0,32.03s23.19,8.85,32.03,0c.86-.86,1.63-1.77,2.32-2.72l74.95,74.95c-.95.69-1.86,1.47-2.72,2.32-8.85,8.85-8.85,23.19,0,32.03s23.19,8.85,32.03,0c5.67-5.67,7.7-13.59,6.1-20.88Z"/>
        <path class="cls-5" d="M60.4,962.3h-21.11c-3.08,0-6.04-1.23-8.22-3.41l-2.26-2.26c-9.49-9.49-25.03-9.49-34.52,0h0c-9.49,9.49-9.49,25.03,0,34.52l2.26,2.26c2.18,2.18,3.41,5.14,3.41,8.22v21.11c0,13.42,10.98,24.41,24.41,24.41h0c13.42,0,24.41-10.98,24.41-24.41h0c0-6.42,5.21-11.63,11.63-11.63h0c13.42,0,24.41-10.98,24.41-24.41h0c0-13.42-10.98-24.41-24.41-24.41Z"/>
        <ellipse class="cls-5" cx="39.24" cy="926.16" rx="19.32" ry="22.08" transform="translate(-238.38 41.72) rotate(-15)"/>
        <ellipse class="cls-5" cx="-7.17" cy="923.46" rx="19.32" ry="22.08" transform="translate(-364.7 71.99) rotate(-23.22)"/>
        <path class="cls-3" d="M101.16,1444.4c7.29,1.6,15.22-.43,20.88-6.1,8.85-8.85,8.85-23.19,0-32.03-8.85-8.85-23.19-8.85-32.03,0-.86.86-1.63,1.77-2.32,2.72l-74.95-74.95c.95-.69,1.86-1.47,2.72-2.32,8.85-8.85,8.85-23.19,0-32.03-8.85-8.85-23.19-8.85-32.03,0-5.67,5.67-7.7,13.59-6.1,20.88-7.29-1.6-15.22.43-20.88,6.1-8.85,8.85-8.85,23.19,0,32.03,8.85,8.85,23.19,8.85,32.03,0,.86-.86,1.63-1.77,2.32-2.72l74.95,74.95c-.95.69-1.86,1.47-2.72,2.32-8.85,8.85-8.85,23.19,0,32.03,8.85,8.85,23.19,8.85,32.03,0,5.67-5.67,7.7-13.59,6.1-20.88Z"/>
        <path class="cls-5" d="M60.4,1656.06h-21.11c-3.08,0-6.04-1.23-8.22-3.41l-2.26-2.26c-9.49-9.49-25.03-9.49-34.52,0h0c-9.49,9.49-9.49,25.03,0,34.52l2.26,2.26c2.18,2.18,3.41,5.14,3.41,8.22v21.11c0,13.42,10.98,24.41,24.41,24.41h0c13.42,0,24.41-10.98,24.41-24.41h0c0-6.42,5.21-11.63,11.63-11.63h0c13.42,0,24.41-10.98,24.41-24.41h0c0-13.42-10.98-24.41-24.41-24.41Z"/>
        <ellipse class="cls-5" cx="39.24" cy="1619.92" rx="19.32" ry="22.08" transform="translate(-417.94 65.36) rotate(-15)"/>
        <ellipse class="cls-5" cx="-7.17" cy="1617.22" rx="19.32" ry="22.08" transform="translate(-638.24 128.19) rotate(-23.22)"/>
        <ellipse class="cls-5" cx="2024.38" cy="330.54" rx="19.32" ry="22.08" transform="translate(1181.15 2200.39) rotate(-75)"/>
        <ellipse class="cls-5" cx="2021.68" cy="284.13" rx="19.32" ry="22.08" transform="translate(963.41 2029.97) rotate(-66.78)"/>
        <path class="cls-3" d="M2101.16,750.64c7.29,1.6,15.22-.43,20.88-6.1,8.85-8.85,8.85-23.19,0-32.03-8.85-8.85-23.19-8.85-32.03,0-.86.86-1.63,1.77-2.32,2.72l-74.95-74.95c.95-.69,1.86-1.47,2.72-2.32,8.85-8.85,8.85-23.19,0-32.03s-23.19-8.85-32.03,0c-5.67,5.67-7.7,13.59-6.1,20.88-7.29-1.6-15.22.43-20.88,6.1-8.85,8.85-8.85,23.19,0,32.03s23.19,8.85,32.03,0c.86-.86,1.63-1.77,2.32-2.72l74.95,74.95c-.95.69-1.86,1.47-2.72,2.32-8.85,8.85-8.85,23.19,0,32.03s23.19,8.85,32.03,0c5.67-5.67,7.7-13.59,6.1-20.88Z"/>
        <path class="cls-5" d="M2060.4,962.3h-21.11c-3.08,0-6.04-1.23-8.22-3.41l-2.26-2.26c-9.49-9.49-25.03-9.49-34.52,0h0c-9.49,9.49-9.49,25.03,0,34.52l2.26,2.26c2.18,2.18,3.41,5.14,3.41,8.22v21.11c0,13.42,10.98,24.41,24.41,24.41h0c13.42,0,24.41-10.98,24.41-24.41h0c0-6.42,5.21-11.63,11.63-11.63h0c13.42,0,24.41-10.98,24.41-24.41h0c0-13.42-10.98-24.41-24.41-24.41Z"/>
        <ellipse class="cls-5" cx="1964.92" cy="1000.48" rx="19.32" ry="22.08" transform="translate(489.95 2639.48) rotate(-75)"/>
        <ellipse class="cls-5" cx="1962.22" cy="954.07" rx="19.32" ry="22.08" transform="translate(311.75 2381.13) rotate(-66.78)"/>
        <ellipse class="cls-5" cx="1992.83" cy="923.46" rx="19.32" ry="22.08" transform="translate(-202.66 860.58) rotate(-23.22)"/>
        <path class="cls-3" d="M2101.16,1444.4c7.29,1.6,15.22-.43,20.88-6.1,8.85-8.85,8.85-23.19,0-32.03-8.85-8.85-23.19-8.85-32.03,0-.86.86-1.63,1.77-2.32,2.72l-74.95-74.95c.95-.69,1.86-1.47,2.72-2.32,8.85-8.85,8.85-23.19,0-32.03-8.85-8.85-23.19-8.85-32.03,0-5.67,5.67-7.7,13.59-6.1,20.88-7.29-1.6-15.22.43-20.88,6.1-8.85,8.85-8.85,23.19,0,32.03,8.85,8.85,23.19,8.85,32.03,0,.86-.86,1.63-1.77,2.32-2.72l74.95,74.95c-.95.69-1.86,1.47-2.72,2.32-8.85,8.85-8.85,23.19,0,32.03,8.85,8.85,23.19,8.85,32.03,0,5.67-5.67,7.7-13.59,6.1-20.88Z"/>
        <path class="cls-5" d="M2060.4,1656.06h-21.11c-3.08,0-6.04-1.23-8.22-3.41l-2.26-2.26c-9.49-9.49-25.03-9.49-34.52,0h0c-9.49,9.49-9.49,25.03,0,34.52l2.26,2.26c2.18,2.18,3.41,5.14,3.41,8.22v21.11c0,13.42,10.98,24.41,24.41,24.41h0c13.42,0,24.41-10.98,24.41-24.41h0c0-6.42,5.21-11.63,11.63-11.63h0c13.42,0,24.41-10.98,24.41-24.41h0c0-13.42-10.98-24.41-24.41-24.41Z"/>
        <ellipse class="cls-5" cx="1964.92" cy="1694.24" rx="19.32" ry="22.08" transform="translate(-180.14 3153.7) rotate(-75)"/>
        <ellipse class="cls-5" cx="1962.22" cy="1647.82" rx="19.32" ry="22.08" transform="translate(-325.82 2801.3) rotate(-66.78)"/>
        <ellipse class="cls-5" cx="1992.83" cy="1617.22" rx="19.32" ry="22.08" transform="translate(-476.21 916.78) rotate(-23.22)"/>
        <path class="cls-3" d="M1879.84,182.45c7.29,1.6,15.22-.43,20.88-6.1,8.85-8.85,8.85-23.19,0-32.03-8.85-8.85-23.19-8.85-32.03,0-.86.86-1.63,1.77-2.32,2.72l-74.95-74.95c.95-.69,1.86-1.47,2.72-2.32,8.85-8.85,8.85-23.19,0-32.03-8.85-8.85-23.19-8.85-32.03,0-5.67,5.67-7.7,13.59-6.1,20.88-7.29-1.6-15.22.43-20.88,6.1-8.85,8.85-8.85,23.19,0,32.03,8.85,8.85,23.19,8.85,32.03,0,.86-.86,1.63-1.77,2.32-2.72l74.95,74.95c-.95.69-1.86,1.47-2.72,2.32-8.85,8.85-8.85,23.19,0,32.03,8.85,8.85,23.19,8.85,32.03,0,5.67-5.67,7.7-13.59,6.1-20.88Z"/>
        <path class="cls-5" d="M1839.08,394.11h-21.11c-3.08,0-6.04-1.23-8.22-3.41l-2.26-2.26c-9.49-9.49-25.03-9.49-34.52,0h0c-9.49,9.49-9.49,25.03,0,34.52l2.26,2.26c2.18,2.18,3.41,5.14,3.41,8.22v21.11c0,13.42,10.98,24.41,24.41,24.41h0c13.42,0,24.41-10.98,24.41-24.41h0c0-6.42,5.21-11.63,11.63-11.63h0c13.42,0,24.41-10.98,24.41-24.41h0c0-13.42-10.98-24.41-24.41-24.41Z"/>
        <ellipse class="cls-5" cx="1743.6" cy="432.29" rx="19.32" ry="22.08" transform="translate(874.75 2004.59) rotate(-75)"/>
        <ellipse class="cls-5" cx="1740.9" cy="385.88" rx="19.32" ry="22.08" transform="translate(699.82 1833.57) rotate(-66.78)"/>
        <ellipse class="cls-5" cx="1817.92" cy="357.98" rx="19.32" ry="22.08" transform="translate(-30.71 482.69) rotate(-15)"/>
        <ellipse class="cls-5" cx="1771.51" cy="355.27" rx="19.32" ry="22.08" transform="translate(3.45 727.31) rotate(-23.22)"/>
        <path class="cls-3" d="M1820.38,852.39c7.29,1.6,15.22-.43,20.88-6.1,8.85-8.85,8.85-23.19,0-32.03-8.85-8.85-23.19-8.85-32.03,0-.86.86-1.63,1.77-2.32,2.72l-74.95-74.95c.95-.69,1.86-1.47,2.72-2.32,8.85-8.85,8.85-23.19,0-32.03-8.85-8.85-23.19-8.85-32.03,0-5.67,5.67-7.7,13.59-6.1,20.88-7.29-1.6-15.22.43-20.88,6.1-8.85,8.85-8.85,23.19,0,32.03,8.85,8.85,23.19,8.85,32.03,0,.86-.86,1.63-1.77,2.32-2.72l74.95,74.95c-.95.69-1.86,1.47-2.72,2.32-8.85,8.85-8.85,23.19,0,32.03,8.85,8.85,23.19,8.85,32.03,0,5.67-5.67,7.7-13.59,6.1-20.88Z"/>
        <path class="cls-5" d="M1779.63,1064.05h-21.11c-3.08,0-6.04-1.23-8.22-3.41l-2.26-2.26c-9.49-9.49-25.03-9.49-34.52,0h0c-9.49,9.49-9.49,25.03,0,34.52l2.26,2.26c2.18,2.18,3.41,5.14,3.41,8.22v21.11c0,13.42,10.98,24.41,24.41,24.41h0c13.42,0,24.41-10.98,24.41-24.41h0c0-6.42,5.21-11.63,11.63-11.63h0c13.42,0,24.41-10.98,24.41-24.41h0c0-13.42-10.98-24.41-24.41-24.41Z"/>
        <ellipse class="cls-5" cx="1684.15" cy="1102.23" rx="19.32" ry="22.08" transform="translate(183.58 2443.7) rotate(-75)"/>
        <ellipse class="cls-5" cx="1681.45" cy="1055.82" rx="19.32" ry="22.08" transform="translate(48.18 2184.73) rotate(-66.78)"/>
        <ellipse class="cls-5" cx="1758.46" cy="1027.91" rx="19.32" ry="22.08" transform="translate(-206.12 490.14) rotate(-15)"/>
        <ellipse class="cls-5" cx="1712.05" cy="1025.21" rx="19.32" ry="22.08" transform="translate(-265.54 758.15) rotate(-23.22)"/>
        <path class="cls-3" d="M1820.38,1546.15c7.29,1.6,15.22-.43,20.88-6.1,8.85-8.85,8.85-23.19,0-32.03s-23.19-8.85-32.03,0c-.86.86-1.63,1.77-2.32,2.72l-74.95-74.95c.95-.69,1.86-1.47,2.72-2.32,8.85-8.85,8.85-23.19,0-32.03-8.85-8.85-23.19-8.85-32.03,0-5.67,5.67-7.7,13.59-6.1,20.88-7.29-1.6-15.22.43-20.88,6.1-8.85,8.85-8.85,23.19,0,32.03s23.19,8.85,32.03,0c.86-.86,1.63-1.77,2.32-2.72l74.95,74.95c-.95.69-1.86,1.47-2.72,2.32-8.85,8.85-8.85,23.19,0,32.03,8.85,8.85,23.19,8.85,32.03,0,5.67-5.67,7.7-13.59,6.1-20.88Z"/>
        <path class="cls-5" d="M1824.64,1778.37h-21.11c-3.08,0-6.04-1.23-8.22-3.41l-2.26-2.26c-9.49-9.49-25.03-9.49-34.52,0h0c-9.49,9.49-9.49,25.03,0,34.52l2.26,2.26c2.18,2.18,3.41,5.14,3.41,8.22v21.11c0,13.42,10.98,24.41,24.41,24.41h0c13.42,0,24.41-10.98,24.41-24.41h0c0-6.42,5.21-11.63,11.63-11.63h0c13.42,0,24.41-10.98,24.41-24.41h0c0-13.42-10.98-24.41-24.41-24.41Z"/>
        <path class="cls-5" d="M1734.16,1797.89c11.78,3.16,19.09,14.07,16.33,24.37-2.76,10.31-14.55,16.1-26.32,12.95-11.78-3.16-19.09-14.07-16.33-24.37,2.76-10.31,14.55-16.1,26.32-12.95Z"/>
        <path class="cls-5" d="M1734.08,1752.38c11.21,4.81,16.88,16.65,12.67,26.46-4.21,9.8-16.7,13.86-27.91,9.05-11.21-4.81-16.88-16.65-12.67-26.46,4.21-9.8,16.7-13.85,27.91-9.05Z"/>
        <path class="cls-5" d="M1784.82,1747.23c3.16,11.78,14.07,19.09,24.37,16.33,10.31-2.76,16.1-14.55,12.95-26.32-3.16-11.78-14.07-19.09-24.37-16.33-10.31,2.76-16.1,14.55-12.95,26.32Z"/>
        <ellipse class="cls-5" cx="1757.07" cy="1739.53" rx="19.32" ry="22.08" transform="translate(-543.54 833.73) rotate(-23.22)"/>
        <path class="cls-5" d="M1578.29,130.7h-21.11c-3.08,0-6.04-1.23-8.22-3.41l-2.26-2.26c-9.49-9.49-25.03-9.49-34.52,0h0c-9.49,9.49-9.49,25.03,0,34.52l2.26,2.26c2.18,2.18,3.41,5.14,3.41,8.22v21.11c0,13.42,10.98,24.41,24.41,24.41h0c13.42,0,24.41-10.98,24.41-24.41h0c0-6.42,5.21-11.63,11.63-11.63h0c13.42,0,24.41-10.98,24.41-24.41h0c0-13.42-10.98-24.41-24.41-24.41Z"/>
        <ellipse class="cls-5" cx="1482.81" cy="168.88" rx="19.32" ry="22.08" transform="translate(935.89 1557.45) rotate(-75)"/>
        <ellipse class="cls-5" cx="1480.11" cy="122.47" rx="19.32" ry="22.08" transform="translate(783.94 1434.36) rotate(-66.78)"/>
        <ellipse class="cls-5" cx="1557.12" cy="94.56" rx="19.32" ry="22.08" transform="translate(28.58 406.24) rotate(-15)"/>
        <path class="cls-5" d="M1492.96,99.48c4.81,11.21,16.65,16.88,26.46,12.67,9.8-4.21,13.86-16.7,9.05-27.91-4.81-11.21-16.65-16.88-26.46-12.67-9.8,4.21-13.86,16.7-9.05,27.91Z"/>
        <path class="cls-3" d="M1619.04,1919.04c7.29,1.6,15.22-.43,20.88-6.1,8.85-8.85,8.85-23.19,0-32.03s-23.19-8.85-32.03,0c-.86.86-1.63,1.77-2.32,2.72l-74.95-74.95c.95-.69,1.86-1.47,2.72-2.32,8.85-8.85,8.85-23.19,0-32.03s-23.19-8.85-32.03,0c-5.67,5.67-7.7,13.59-6.1,20.88-7.29-1.6-15.22.43-20.88,6.1-8.85,8.85-8.85,23.19,0,32.03,8.85,8.85,23.19,8.85,32.03,0,.86-.86,1.63-1.77,2.32-2.72l74.95,74.95c-.95.69-1.86,1.47-2.72,2.32-8.85,8.85-8.85,23.19,0,32.03s23.19,8.85,32.03,0c5.67-5.67,7.7-13.59,6.1-20.88Z"/>
        <path class="cls-3" d="M1559.59,588.98c7.29,1.6,15.22-.43,20.88-6.1,8.85-8.85,8.85-23.19,0-32.03-8.85-8.85-23.19-8.85-32.03,0-.86.86-1.63,1.77-2.32,2.72l-74.95-74.95c.95-.69,1.86-1.47,2.72-2.32,8.85-8.85,8.85-23.19,0-32.03-8.85-8.85-23.19-8.85-32.03,0-5.67,5.67-7.7,13.59-6.1,20.88-7.29-1.6-15.22.43-20.88,6.1-8.85,8.85-8.85,23.19,0,32.03,8.85,8.85,23.19,8.85,32.03,0,.86-.86,1.63-1.77,2.32-2.72l74.95,74.95c-.95.69-1.86,1.47-2.72,2.32-8.85,8.85-8.85,23.19,0,32.03,8.85,8.85,23.19,8.85,32.03,0,5.67-5.67,7.7-13.59,6.1-20.88Z"/>
        <path class="cls-5" d="M1518.83,800.64h-21.11c-3.08,0-6.04-1.23-8.22-3.41l-2.26-2.26c-9.49-9.49-25.03-9.49-34.52,0h0c-9.49,9.49-9.49,25.03,0,34.52l2.26,2.26c2.18,2.18,3.41,5.14,3.41,8.22v21.11c0,13.42,10.98,24.41,24.41,24.41h0c13.42,0,24.41-10.98,24.41-24.41h0c0-6.42,5.21-11.63,11.63-11.63h0c13.42,0,24.41-10.98,24.41-24.41h0c0-13.42-10.98-24.41-24.41-24.41Z"/>
        <ellipse class="cls-5" cx="1423.35" cy="838.82" rx="19.32" ry="22.08" transform="translate(244.72 1996.56) rotate(-75)"/>
        <ellipse class="cls-5" cx="1420.65" cy="792.41" rx="19.32" ry="22.08" transform="translate(132.29 1785.53) rotate(-66.78)"/>
        <ellipse class="cls-5" cx="1497.67" cy="764.5" rx="19.32" ry="22.08" transform="translate(-146.84 413.67) rotate(-15)"/>
        <ellipse class="cls-5" cx="1451.26" cy="761.8" rx="19.32" ry="22.08" transform="translate(-182.8 633.97) rotate(-23.22)"/>
        <path class="cls-3" d="M1559.59,1282.74c7.29,1.6,15.22-.43,20.88-6.1,8.85-8.85,8.85-23.19,0-32.03-8.85-8.85-23.19-8.85-32.03,0-.86.86-1.63,1.77-2.32,2.72l-74.95-74.95c.95-.69,1.86-1.47,2.72-2.32,8.85-8.85,8.85-23.19,0-32.03s-23.19-8.85-32.03,0c-5.67,5.67-7.7,13.59-6.1,20.88-7.29-1.6-15.22.43-20.88,6.1-8.85,8.85-8.85,23.19,0,32.03s23.19,8.85,32.03,0c.86-.86,1.63-1.77,2.32-2.72l74.95,74.95c-.95.69-1.86,1.47-2.72,2.32-8.85,8.85-8.85,23.19,0,32.03s23.19,8.85,32.03,0c5.67-5.67,7.7-13.59,6.1-20.88Z"/>
        <path class="cls-5" d="M1518.83,1494.4h-21.11c-3.08,0-6.04-1.23-8.22-3.41l-2.26-2.26c-9.49-9.49-25.03-9.49-34.52,0h0c-9.49,9.49-9.49,25.03,0,34.52l2.26,2.26c2.18,2.18,3.41,5.14,3.41,8.22v21.11c0,13.42,10.98,24.41,24.41,24.41h0c13.42,0,24.41-10.98,24.41-24.41h0c0-6.42,5.21-11.63,11.63-11.63h0c13.42,0,24.41-10.98,24.41-24.41h0c0-13.42-10.98-24.41-24.41-24.41Z"/>
        <ellipse class="cls-5" cx="1423.35" cy="1532.58" rx="19.32" ry="22.08" transform="translate(-425.39 2510.78) rotate(-75)"/>
        <ellipse class="cls-5" cx="1420.65" cy="1486.16" rx="19.32" ry="22.08" transform="translate(-505.27 2205.71) rotate(-66.78)"/>
        <ellipse class="cls-5" cx="1497.67" cy="1458.26" rx="19.32" ry="22.08" transform="translate(-326.38 437.3) rotate(-15)"/>
        <ellipse class="cls-5" cx="1451.26" cy="1455.56" rx="19.32" ry="22.08" transform="translate(-456.36 690.18) rotate(-23.22)"/>
        <path class="cls-3" d="M1331.51,80.7c7.29,1.6,15.22-.43,20.88-6.1,8.85-8.85,8.85-23.19,0-32.03s-23.19-8.85-32.03,0c-.86.86-1.63,1.77-2.32,2.72l-74.95-74.95c.95-.69,1.86-1.47,2.72-2.32,8.85-8.85,8.85-23.19,0-32.03-8.85-8.85-23.19-8.85-32.03,0-5.67,5.67-7.7,13.59-6.1,20.88-7.29-1.6-15.22.43-20.88,6.1-8.85,8.85-8.85,23.19,0,32.03s23.19,8.85,32.03,0c.86-.86,1.63-1.77,2.32-2.72l74.95,74.95c-.95.69-1.86,1.47-2.72,2.32-8.85,8.85-8.85,23.19,0,32.03,8.85,8.85,23.19,8.85,32.03,0,5.67-5.67,7.7-13.59,6.1-20.88Z"/>
        <path class="cls-5" d="M1290.75,292.36h-21.11c-3.08,0-6.04-1.23-8.22-3.41l-2.26-2.26c-9.49-9.49-25.03-9.49-34.52,0h0c-9.49,9.49-9.49,25.03,0,34.52l2.26,2.26c2.18,2.18,3.41,5.14,3.41,8.22v21.11c0,13.42,10.98,24.41,24.41,24.41h0c13.42,0,24.41-10.98,24.41-24.41h0c0-6.42,5.21-11.63,11.63-11.63h0c13.42,0,24.41-10.98,24.41-24.41h0c0-13.42-10.98-24.41-24.41-24.41Z"/>
        <ellipse class="cls-5" cx="1195.27" cy="330.54" rx="19.32" ry="22.08" transform="translate(566.63 1399.53) rotate(-75)"/>
        <ellipse class="cls-5" cx="1192.57" cy="284.13" rx="19.32" ry="22.08" transform="translate(461.22 1268.04) rotate(-66.78)"/>
        <ellipse class="cls-5" cx="1269.59" cy="256.22" rx="19.32" ry="22.08" transform="translate(-23.05 337.33) rotate(-15)"/>
        <ellipse class="cls-5" cx="1223.18" cy="253.52" rx="19.32" ry="22.08" transform="translate(-.86 502.85) rotate(-23.22)"/>
        <path class="cls-3" d="M1331.51,2080.7c7.29,1.6,15.22-.43,20.88-6.1,8.85-8.85,8.85-23.19,0-32.03s-23.19-8.85-32.03,0c-.86.86-1.63,1.77-2.32,2.72l-74.95-74.95c.95-.69,1.86-1.47,2.72-2.32,8.85-8.85,8.85-23.19,0-32.03-8.85-8.85-23.19-8.85-32.03,0-5.67,5.67-7.7,13.59-6.1,20.88-7.29-1.6-15.22.43-20.88,6.1-8.85,8.85-8.85,23.19,0,32.03s23.19,8.85,32.03,0c.86-.86,1.63-1.77,2.32-2.72l74.95,74.95c-.95.69-1.86,1.47-2.72,2.32-8.85,8.85-8.85,23.19,0,32.03,8.85,8.85,23.19,8.85,32.03,0,5.67-5.67,7.7-13.59,6.1-20.88Z"/>
        <path class="cls-3" d="M1272.05,750.64c7.29,1.6,15.22-.43,20.88-6.1,8.85-8.85,8.85-23.19,0-32.03-8.85-8.85-23.19-8.85-32.03,0-.86.86-1.63,1.77-2.32,2.72l-74.95-74.95c.95-.69,1.86-1.47,2.72-2.32,8.85-8.85,8.85-23.19,0-32.03-8.85-8.85-23.19-8.85-32.03,0-5.67,5.67-7.7,13.59-6.1,20.88-7.29-1.6-15.22.43-20.88,6.1-8.85,8.85-8.85,23.19,0,32.03,8.85,8.85,23.19,8.85,32.03,0,.86-.86,1.63-1.77,2.32-2.72l74.95,74.95c-.95.69-1.86,1.47-2.72,2.32-8.85,8.85-8.85,23.19,0,32.03,8.85,8.85,23.19,8.85,32.03,0,5.67-5.67,7.7-13.59,6.1-20.88Z"/>
        <path class="cls-5" d="M1231.3,962.3h-21.11c-3.08,0-6.04-1.23-8.22-3.41l-2.26-2.26c-9.49-9.49-25.03-9.49-34.52,0h0c-9.49,9.49-9.49,25.03,0,34.52l2.26,2.26c2.18,2.18,3.41,5.14,3.41,8.22v21.11c0,13.42,10.98,24.41,24.41,24.41h0c13.42,0,24.41-10.98,24.41-24.41h0c0-6.42,5.21-11.63,11.63-11.63h0c13.42,0,24.41-10.98,24.41-24.41h0c0-13.42-10.98-24.41-24.41-24.41Z"/>
        <ellipse class="cls-5" cx="1135.82" cy="1000.48" rx="19.32" ry="22.08" transform="translate(-124.55 1838.64) rotate(-75)"/>
        <ellipse class="cls-5" cx="1133.12" cy="954.07" rx="19.32" ry="22.08" transform="translate(-190.44 1619.19) rotate(-66.78)"/>
        <ellipse class="cls-5" cx="1210.13" cy="926.16" rx="19.32" ry="22.08" transform="translate(-198.47 344.76) rotate(-15)"/>
        <ellipse class="cls-5" cx="1163.72" cy="923.46" rx="19.32" ry="22.08" transform="translate(-269.84 533.69) rotate(-23.22)"/>
        <path class="cls-3" d="M1272.05,1444.4c7.29,1.6,15.22-.43,20.88-6.1,8.85-8.85,8.85-23.19,0-32.03-8.85-8.85-23.19-8.85-32.03,0-.86.86-1.63,1.77-2.32,2.72l-74.95-74.95c.95-.69,1.86-1.47,2.72-2.32,8.85-8.85,8.85-23.19,0-32.03-8.85-8.85-23.19-8.85-32.03,0-5.67,5.67-7.7,13.59-6.1,20.88-7.29-1.6-15.22.43-20.88,6.1-8.85,8.85-8.85,23.19,0,32.03s23.19,8.85,32.03,0c.86-.86,1.63-1.77,2.32-2.72l74.95,74.95c-.95.69-1.86,1.47-2.72,2.32-8.85,8.85-8.85,23.19,0,32.03,8.85,8.85,23.19,8.85,32.03,0,5.67-5.67,7.7-13.59,6.1-20.88Z"/>
        <path class="cls-5" d="M1231.3,1656.06h-21.11c-3.08,0-6.04-1.23-8.22-3.41l-2.26-2.26c-9.49-9.49-25.03-9.49-34.52,0h0c-9.49,9.49-9.49,25.03,0,34.52l2.26,2.26c2.18,2.18,3.41,5.14,3.41,8.22v21.11c0,13.42,10.98,24.41,24.41,24.41h0c13.42,0,24.41-10.98,24.41-24.41h0c0-6.42,5.21-11.63,11.63-11.63h0c13.42,0,24.41-10.98,24.41-24.41h0c0-13.42-10.98-24.41-24.41-24.41Z"/>
        <ellipse class="cls-5" cx="1135.82" cy="1694.24" rx="19.32" ry="22.08" transform="translate(-794.65 2352.86) rotate(-75)"/>
        <ellipse class="cls-5" cx="1133.12" cy="1647.82" rx="19.32" ry="22.08" transform="translate(-828 2039.37) rotate(-66.78)"/>
        <ellipse class="cls-5" cx="1210.13" cy="1619.92" rx="19.32" ry="22.08" transform="translate(-378.02 368.39) rotate(-15)"/>
        <ellipse class="cls-5" cx="1163.72" cy="1617.22" rx="19.32" ry="22.08" transform="translate(-543.39 589.89) rotate(-23.22)"/>
        <path class="cls-5" d="M953.51,130.7h-21.11c-3.08,0-6.04-1.23-8.22-3.41l-2.26-2.26c-9.49-9.49-25.03-9.49-34.52,0h0c-9.49,9.49-9.49,25.03,0,34.52l2.26,2.26c2.18,2.18,3.41,5.14,3.41,8.22v21.11c0,13.42,10.98,24.41,24.41,24.41h0c13.42,0,24.41-10.98,24.41-24.41h0c0-6.42,5.21-11.63,11.63-11.63h0c13.42,0,24.41-10.98,24.41-24.41h0c0-13.42-10.98-24.41-24.41-24.41Z"/>
        <ellipse class="cls-5" cx="858.03" cy="168.88" rx="19.32" ry="22.08" transform="translate(472.83 953.96) rotate(-75)"/>
        <ellipse class="cls-5" cx="855.33" cy="122.47" rx="19.32" ry="22.08" transform="translate(405.52 860.21) rotate(-66.78)"/>
        <ellipse class="cls-5" cx="932.35" cy="94.56" rx="19.32" ry="22.08" transform="translate(7.29 244.52) rotate(-15)"/>
        <path class="cls-5" d="M868.18,99.48c4.81,11.21,16.65,16.88,26.46,12.67,9.8-4.21,13.86-16.7,9.05-27.91-4.81-11.21-16.65-16.88-26.46-12.67s-13.86,16.7-9.05,27.91Z"/>
        <path class="cls-3" d="M994.27,1919.04c7.29,1.6,15.22-.43,20.88-6.1,8.85-8.85,8.85-23.19,0-32.03-8.85-8.85-23.19-8.85-32.03,0-.86.86-1.63,1.77-2.32,2.72l-74.95-74.95c.95-.69,1.86-1.47,2.72-2.32,8.85-8.85,8.85-23.19,0-32.03-8.85-8.85-23.19-8.85-32.03,0-5.67,5.67-7.7,13.59-6.1,20.88-7.29-1.6-15.22.43-20.88,6.1-8.85,8.85-8.85,23.19,0,32.03,8.85,8.85,23.19,8.85,32.03,0,.86-.86,1.63-1.77,2.32-2.72l74.95,74.95c-.95.69-1.86,1.47-2.72,2.32-8.85,8.85-8.85,23.19,0,32.03s23.19,8.85,32.03,0c5.67-5.67,7.7-13.59,6.1-20.88Z"/>
        <path class="cls-3" d="M934.81,588.98c7.29,1.6,15.22-.43,20.88-6.1,8.85-8.85,8.85-23.19,0-32.03-8.85-8.85-23.19-8.85-32.03,0-.86.86-1.63,1.77-2.32,2.72l-74.95-74.95c.95-.69,1.86-1.47,2.72-2.32,8.85-8.85,8.85-23.19,0-32.03-8.85-8.85-23.19-8.85-32.03,0-5.67,5.67-7.7,13.59-6.1,20.88-7.29-1.6-15.22.43-20.88,6.1-8.85,8.85-8.85,23.19,0,32.03,8.85,8.85,23.19,8.85,32.03,0,.86-.86,1.63-1.77,2.32-2.72l74.95,74.95c-.95.69-1.86,1.47-2.72,2.32-8.85,8.85-8.85,23.19,0,32.03,8.85,8.85,23.19,8.85,32.03,0,5.67-5.67,7.7-13.59,6.1-20.88Z"/>
        <path class="cls-5" d="M894.06,800.64h-21.11c-3.08,0-6.04-1.23-8.22-3.41l-2.26-2.26c-9.49-9.49-25.03-9.49-34.52,0h0c-9.49,9.49-9.49,25.03,0,34.52l2.26,2.26c2.18,2.18,3.41,5.14,3.41,8.22v21.11c0,13.42,10.98,24.41,24.41,24.41h0c13.42,0,24.41-10.98,24.41-24.41h0c0-6.42,5.21-11.63,11.63-11.63h0c13.42,0,24.41-10.98,24.41-24.41h0c0-13.42-10.98-24.41-24.41-24.41Z"/>
        <ellipse class="cls-5" cx="798.58" cy="838.82" rx="19.32" ry="22.08" transform="translate(-218.35 1393.08) rotate(-75)"/>
        <ellipse class="cls-5" cx="795.88" cy="792.41" rx="19.32" ry="22.08" transform="translate(-246.14 1211.36) rotate(-66.78)"/>
        <ellipse class="cls-5" cx="872.9" cy="764.5" rx="19.32" ry="22.08" transform="translate(-168.12 251.97) rotate(-15)"/>
        <ellipse class="cls-5" cx="826.48" cy="761.8" rx="19.32" ry="22.08" transform="translate(-233.42 387.6) rotate(-23.22)"/>
        <path class="cls-3" d="M934.81,1282.74c7.29,1.6,15.22-.43,20.88-6.1,8.85-8.85,8.85-23.19,0-32.03-8.85-8.85-23.19-8.85-32.03,0-.86.86-1.63,1.77-2.32,2.72l-74.95-74.95c.95-.69,1.86-1.47,2.72-2.32,8.85-8.85,8.85-23.19,0-32.03s-23.19-8.85-32.03,0c-5.67,5.67-7.7,13.59-6.1,20.88-7.29-1.6-15.22.43-20.88,6.1-8.85,8.85-8.85,23.19,0,32.03,8.85,8.85,23.19,8.85,32.03,0,.86-.86,1.63-1.77,2.32-2.72l74.95,74.95c-.95.69-1.86,1.47-2.72,2.32-8.85,8.85-8.85,23.19,0,32.03,8.85,8.85,23.19,8.85,32.03,0,5.67-5.67,7.7-13.59,6.1-20.88Z"/>
        <path class="cls-5" d="M894.06,1494.4h-21.11c-3.08,0-6.04-1.23-8.22-3.41l-2.26-2.26c-9.49-9.49-25.03-9.49-34.52,0h0c-9.49,9.49-9.49,25.03,0,34.52l2.26,2.26c2.18,2.18,3.41,5.14,3.41,8.22v21.11c0,13.42,10.98,24.41,24.41,24.41h0c13.42,0,24.41-10.98,24.41-24.41h0c0-6.42,5.21-11.63,11.63-11.63h0c13.42,0,24.41-10.98,24.41-24.41h0c0-13.42-10.98-24.41-24.41-24.41Z"/>
        <ellipse class="cls-5" cx="798.58" cy="1532.58" rx="19.32" ry="22.08" transform="translate(-888.46 1907.3) rotate(-75)"/>
        <ellipse class="cls-5" cx="795.88" cy="1486.16" rx="19.32" ry="22.08" transform="translate(-883.69 1631.55) rotate(-66.78)"/>
        <ellipse class="cls-5" cx="872.9" cy="1458.26" rx="19.32" ry="22.08" transform="translate(-347.67 275.6) rotate(-15)"/>
        <ellipse class="cls-5" cx="826.48" cy="1455.56" rx="19.32" ry="22.08" transform="translate(-506.96 443.81) rotate(-23.22)"/>
        <path class="cls-3" d="M708.21,80.7c7.29,1.6,15.22-.43,20.88-6.1,8.85-8.85,8.85-23.19,0-32.03s-23.19-8.85-32.03,0c-.86.86-1.63,1.77-2.32,2.72l-74.95-74.95c.95-.69,1.86-1.47,2.72-2.32,8.85-8.85,8.85-23.19,0-32.03-8.85-8.85-23.19-8.85-32.03,0-5.67,5.67-7.7,13.59-6.1,20.88-7.29-1.6-15.22.43-20.88,6.1-8.85,8.85-8.85,23.19,0,32.03s23.19,8.85,32.03,0c.86-.86,1.63-1.77,2.32-2.72l74.95,74.95c-.95.69-1.86,1.47-2.72,2.32-8.85,8.85-8.85,23.19,0,32.03,8.85,8.85,23.19,8.85,32.03,0,5.67-5.67,7.7-13.59,6.1-20.88Z"/>
        <path class="cls-5" d="M667.46,292.36h-21.11c-3.08,0-6.04-1.23-8.22-3.41l-2.26-2.26c-9.49-9.49-25.03-9.49-34.52,0h0c-9.49,9.49-9.49,25.03,0,34.52l2.26,2.26c2.18,2.18,3.41,5.14,3.41,8.22v21.11c0,13.42,10.98,24.41,24.41,24.41h0c13.42,0,24.41-10.98,24.41-24.41h0c0-6.42,5.21-11.63,11.63-11.63h0c13.42,0,24.41-10.98,24.41-24.41h0c0-13.42-10.98-24.41-24.41-24.41Z"/>
        <ellipse class="cls-5" cx="571.98" cy="330.54" rx="19.32" ry="22.08" transform="translate(104.66 797.48) rotate(-75)"/>
        <ellipse class="cls-5" cx="569.28" cy="284.13" rx="19.32" ry="22.08" transform="translate(83.7 695.24) rotate(-66.78)"/>
        <ellipse class="cls-5" cx="646.29" cy="256.22" rx="19.32" ry="22.08" transform="translate(-44.29 176.01) rotate(-15)"/>
        <ellipse class="cls-5" cx="599.88" cy="253.52" rx="19.32" ry="22.08" transform="translate(-51.36 257.08) rotate(-23.22)"/>
        <path class="cls-3" d="M708.21,2080.7c7.29,1.6,15.22-.43,20.88-6.1,8.85-8.85,8.85-23.19,0-32.03s-23.19-8.85-32.03,0c-.86.86-1.63,1.77-2.32,2.72l-74.95-74.95c.95-.69,1.86-1.47,2.72-2.32,8.85-8.85,8.85-23.19,0-32.03-8.85-8.85-23.19-8.85-32.03,0-5.67,5.67-7.7,13.59-6.1,20.88-7.29-1.6-15.22.43-20.88,6.1-8.85,8.85-8.85,23.19,0,32.03s23.19,8.85,32.03,0c.86-.86,1.63-1.77,2.32-2.72l74.95,74.95c-.95.69-1.86,1.47-2.72,2.32-8.85,8.85-8.85,23.19,0,32.03,8.85,8.85,23.19,8.85,32.03,0,5.67-5.67,7.7-13.59,6.1-20.88Z"/>
        <path class="cls-3" d="M648.76,750.64c7.29,1.6,15.22-.43,20.88-6.1,8.85-8.85,8.85-23.19,0-32.03-8.85-8.85-23.19-8.85-32.03,0-.86.86-1.63,1.77-2.32,2.72l-74.95-74.95c.95-.69,1.86-1.47,2.72-2.32,8.85-8.85,8.85-23.19,0-32.03-8.85-8.85-23.19-8.85-32.03,0-5.67,5.67-7.7,13.59-6.1,20.88-7.29-1.6-15.22.43-20.88,6.1-8.85,8.85-8.85,23.19,0,32.03,8.85,8.85,23.19,8.85,32.03,0,.86-.86,1.63-1.77,2.32-2.72l74.95,74.95c-.95.69-1.86,1.47-2.72,2.32-8.85,8.85-8.85,23.19,0,32.03,8.85,8.85,23.19,8.85,32.03,0,5.67-5.67,7.7-13.59,6.1-20.88Z"/>
        <path class="cls-5" d="M608,962.3h-21.11c-3.08,0-6.04-1.23-8.22-3.41l-2.26-2.26c-9.49-9.49-25.03-9.49-34.52,0h0c-9.49,9.49-9.49,25.03,0,34.52l2.26,2.26c2.18,2.18,3.41,5.14,3.41,8.22v21.11c0,13.42,10.98,24.41,24.41,24.41h0c13.42,0,24.41-10.98,24.41-24.41h0c0-6.42,5.21-11.63,11.63-11.63h0c13.42,0,24.41-10.98,24.41-24.41h0c0-13.42-10.98-24.41-24.41-24.41Z"/>
        <ellipse class="cls-5" cx="512.52" cy="1000.48" rx="19.32" ry="22.08" transform="translate(-586.52 1236.59) rotate(-75)"/>
        <ellipse class="cls-5" cx="509.82" cy="954.07" rx="19.32" ry="22.08" transform="translate(-567.97 1046.41) rotate(-66.78)"/>
        <ellipse class="cls-5" cx="586.84" cy="926.16" rx="19.32" ry="22.08" transform="translate(-219.71 183.44) rotate(-15)"/>
        <ellipse class="cls-5" cx="540.43" cy="923.46" rx="19.32" ry="22.08" transform="translate(-320.34 287.92) rotate(-23.22)"/>
        <path class="cls-3" d="M648.76,1444.4c7.29,1.6,15.22-.43,20.88-6.1,8.85-8.85,8.85-23.19,0-32.03-8.85-8.85-23.19-8.85-32.03,0-.86.86-1.63,1.77-2.32,2.72l-74.95-74.95c.95-.69,1.86-1.47,2.72-2.32,8.85-8.85,8.85-23.19,0-32.03s-23.19-8.85-32.03,0c-5.67,5.67-7.7,13.59-6.1,20.88-7.29-1.6-15.22.43-20.88,6.1-8.85,8.85-8.85,23.19,0,32.03,8.85,8.85,23.19,8.85,32.03,0,.86-.86,1.63-1.77,2.32-2.72l74.95,74.95c-.95.69-1.86,1.47-2.72,2.32-8.85,8.85-8.85,23.19,0,32.03,8.85,8.85,23.19,8.85,32.03,0,5.67-5.67,7.7-13.59,6.1-20.88Z"/>
        <path class="cls-5" d="M608,1656.06h-21.11c-3.08,0-6.04-1.23-8.22-3.41l-2.26-2.26c-9.49-9.49-25.03-9.49-34.52,0h0c-9.49,9.49-9.49,25.03,0,34.52l2.26,2.26c2.18,2.18,3.41,5.14,3.41,8.22v21.11c0,13.42,10.98,24.41,24.41,24.41h0c13.42,0,24.41-10.98,24.41-24.41h0c0-6.42,5.21-11.63,11.63-11.63h0c13.42,0,24.41-10.98,24.41-24.41h0c0-13.42-10.98-24.41-24.41-24.41Z"/>
        <ellipse class="cls-5" cx="512.52" cy="1694.24" rx="19.32" ry="22.08" transform="translate(-1256.63 1750.8) rotate(-75)"/>
        <ellipse class="cls-5" cx="509.82" cy="1647.82" rx="19.32" ry="22.08" transform="translate(-1205.52 1466.6) rotate(-66.78)"/>
        <ellipse class="cls-5" cx="586.84" cy="1619.92" rx="19.32" ry="22.08" transform="translate(-399.26 207.08) rotate(-15)"/>
        <ellipse class="cls-5" cx="540.43" cy="1617.22" rx="19.32" ry="22.08" transform="translate(-593.9 344.13) rotate(-23.22)"/>
        <path class="cls-5" d="M392.7,130.7h-21.11c-3.08,0-6.04-1.23-8.22-3.41l-2.26-2.26c-9.49-9.49-25.03-9.49-34.52,0h0c-9.49,9.49-9.49,25.03,0,34.52l2.26,2.26c2.18,2.18,3.41,5.14,3.41,8.22v21.11c0,13.42,10.98,24.41,24.41,24.41h0c13.42,0,24.41-10.98,24.41-24.41h0c0-6.42,5.21-11.63,11.63-11.63h0c13.42,0,24.41-10.98,24.41-24.41h0c0-13.42-10.98-24.41-24.41-24.41Z"/>
        <ellipse class="cls-5" cx="297.22" cy="168.88" rx="19.32" ry="22.08" transform="translate(57.17 412.27) rotate(-75)"/>
        <ellipse class="cls-5" cx="294.52" cy="122.47" rx="19.32" ry="22.08" transform="translate(65.84 344.84) rotate(-66.78)"/>
        <ellipse class="cls-5" cx="371.54" cy="94.56" rx="19.32" ry="22.08" transform="translate(-11.81 99.39) rotate(-15)"/>
        <ellipse class="cls-5" cx="325.13" cy="91.86" rx="19.32" ry="22.08" transform="translate(-9.88 135.65) rotate(-23.22)"/>
        <path class="cls-3" d="M433.46,1919.04c7.29,1.6,15.22-.43,20.88-6.1,8.85-8.85,8.85-23.19,0-32.03-8.85-8.85-23.19-8.85-32.03,0-.86.86-1.63,1.77-2.32,2.72l-74.95-74.95c.95-.69,1.87-1.47,2.72-2.32,8.85-8.85,8.85-23.19,0-32.03-8.85-8.85-23.19-8.85-32.03,0-5.67,5.67-7.7,13.59-6.1,20.88-7.29-1.6-15.22.43-20.88,6.1-8.85,8.85-8.85,23.19,0,32.03,8.85,8.85,23.19,8.85,32.03,0,.86-.86,1.63-1.77,2.32-2.72l74.95,74.95c-.95.69-1.86,1.47-2.72,2.32-8.85,8.85-8.85,23.19,0,32.03,8.85,8.85,23.19,8.85,32.03,0,5.67-5.67,7.7-13.59,6.1-20.88Z"/>
        <path class="cls-3" d="M374,588.98c7.29,1.6,15.22-.43,20.88-6.1,8.85-8.85,8.85-23.19,0-32.03-8.85-8.85-23.19-8.85-32.03,0-.86.86-1.63,1.77-2.32,2.72l-74.95-74.95c.95-.69,1.86-1.47,2.72-2.32,8.85-8.85,8.85-23.19,0-32.03-8.85-8.85-23.19-8.85-32.03,0-5.67,5.67-7.7,13.59-6.1,20.88-7.29-1.6-15.22.43-20.88,6.1-8.85,8.85-8.85,23.19,0,32.03,8.85,8.85,23.19,8.85,32.03,0,.86-.86,1.63-1.77,2.32-2.72l74.95,74.95c-.95.69-1.86,1.47-2.72,2.32-8.85,8.85-8.85,23.19,0,32.03,8.85,8.85,23.19,8.85,32.03,0,5.67-5.67,7.7-13.59,6.1-20.88Z"/>
        <path class="cls-5" d="M333.25,800.64h-21.11c-3.08,0-6.04-1.23-8.22-3.41l-2.26-2.26c-9.49-9.49-25.03-9.49-34.52,0h0c-9.49,9.49-9.49,25.03,0,34.52l2.26,2.26c2.18,2.18,3.41,5.14,3.41,8.22v21.11c0,13.42,10.98,24.41,24.41,24.41h0c13.42,0,24.41-10.98,24.41-24.41h0c0-6.42,5.21-11.63,11.63-11.63h0c13.42,0,24.41-10.98,24.41-24.41h0c0-13.42-10.98-24.41-24.41-24.41Z"/>
        <ellipse class="cls-5" cx="237.77" cy="838.82" rx="19.32" ry="22.08" transform="translate(-634.01 851.38) rotate(-75)"/>
        <path class="cls-5" d="M242.69,774.65c11.21,4.81,16.88,16.65,12.67,26.46s-16.7,13.86-27.91,9.05-16.88-16.65-12.67-26.46c4.21-9.8,16.7-13.86,27.91-9.05Z"/>
        <ellipse class="cls-5" cx="312.09" cy="764.5" rx="19.32" ry="22.08" transform="translate(-187.23 106.82) rotate(-15)"/>
        <ellipse class="cls-5" cx="265.67" cy="761.8" rx="19.32" ry="22.08" transform="translate(-278.86 166.48) rotate(-23.22)"/>
        <path class="cls-3" d="M374,1282.74c7.29,1.6,15.22-.43,20.88-6.1,8.85-8.85,8.85-23.19,0-32.03s-23.19-8.85-32.03,0c-.86.86-1.63,1.77-2.32,2.72l-74.95-74.95c.95-.69,1.86-1.47,2.72-2.32,8.85-8.85,8.85-23.19,0-32.03-8.85-8.85-23.19-8.85-32.03,0-5.67,5.67-7.7,13.59-6.1,20.88-7.29-1.6-15.22.43-20.88,6.1-8.85,8.85-8.85,23.19,0,32.03s23.19,8.85,32.03,0c.86-.86,1.63-1.77,2.32-2.72l74.95,74.95c-.95.69-1.86,1.47-2.72,2.32-8.85,8.85-8.85,23.19,0,32.03,8.85,8.85,23.19,8.85,32.03,0,5.67-5.67,7.7-13.59,6.1-20.88Z"/>
        <path class="cls-5" d="M333.25,1494.4h-21.11c-3.08,0-6.04-1.23-8.22-3.41l-2.26-2.26c-9.49-9.49-25.03-9.49-34.52,0h0c-9.49,9.49-9.49,25.03,0,34.52l2.26,2.26c2.18,2.18,3.41,5.14,3.41,8.22v21.11c0,13.42,10.98,24.41,24.41,24.41h0c13.42,0,24.41-10.98,24.41-24.41h0c0-6.42,5.21-11.63,11.63-11.63h0c13.42,0,24.41-10.98,24.41-24.41h0c0-13.42-10.98-24.41-24.41-24.41Z"/>
        <ellipse class="cls-5" cx="237.77" cy="1532.58" rx="19.32" ry="22.08" transform="translate(-1304.12 1365.59) rotate(-75)"/>
        <ellipse class="cls-5" cx="235.07" cy="1486.16" rx="19.32" ry="22.08" transform="translate(-1223.38 1116.19) rotate(-66.78)"/>
        <ellipse class="cls-5" cx="312.09" cy="1458.26" rx="19.32" ry="22.08" transform="translate(-366.78 130.46) rotate(-15)"/>
        <ellipse class="cls-5" cx="265.67" cy="1455.56" rx="19.32" ry="22.08" transform="translate(-552.42 222.69) rotate(-23.22)"/>
      </g>
    </g>
  </g>
</svg>