<?xml version="1.0" encoding="UTF-8"?>
<svg id="Layer_2" data-name="Layer 2" xmlns="http://www.w3.org/2000/svg" viewBox="0 0 295.2 82.88">
  <defs>
    <style>
      .cls-1 {
        fill: #000;
      }

      .cls-1, .cls-2 {
        stroke-width: 0px;
      }

      .cls-3 {
        fill: none;
        stroke: #000;
        stroke-miterlimit: 10;
        stroke-width: 7.87px;
      }

      .cls-2 {
        fill: #211e1f;
      }
    </style>
  </defs>
  <g id="Logo1">
    <g>
      <path class="cls-3" d="M217.37,22.94c13.12-7.06,12.24,37.58-2.36,36.56-14.6-1.02-12.83-28.38,2.36-36.56Z"/>
      <path class="cls-3" d="M86.08,21.74c13.74-7.4,12.82,39.35-2.47,38.28s-13.44-29.71,2.47-38.28Z"/>
      <path class="cls-3" d="M131.79,66.54l-8.92-39.04c-.19-.82-1.19-1.12-1.8-.55l-10.7,10.14c-.74.7-1.94.09-1.82-.91l1.81-15.23s-5.45,29.79-5.45,39.84"/>
      <path class="cls-3" d="M231.9,22.5l5.05.33c.54.04.99.44,1.11,1l7.19,34.17c.12.56.57.96,1.11,1l2.85.19c.52.03,1.01-.28,1.21-.79l9.39-23.56c.37-.93,1.56-1.08,2.12-.27l4.34,3.78"/>
      <path class="cls-3" d="M157.58,57.64l-4.59-1.06c-.1-.05-.21-.06-.32-.03l-11.07,3c-.27.07-.53-.11-.57-.38l-2.48-22.09s0-.03,0-.05l-2.66-11.45c-.04-.15.01-.31.12-.42l1.61-1.61c.1-.1.25-.15.39-.13l11.83,1.94"/>
      <path class="cls-3" d="M138.55,37.04l9.41,3.84c.11.05.24.04.35,0l4.39-1.88"/>
      <path class="cls-3" d="M294.31,57.64l-4.59-1.06c-.1-.05-.21-.06-.32-.03l-11.07,3c-.27.07-.53-.11-.57-.38l-2.48-22.09s0-.03,0-.05l-2.66-11.45c-.04-.15.01-.31.12-.42l1.61-1.61c.1-.1.25-.15.39-.13l11.83,1.94"/>
      <path class="cls-3" d="M275.28,37.04l9.41,3.84c.11.05.24.04.35,0l4.39-1.88"/>
      <path class="cls-1" d="M84.05,43.72c-1.06-.87-1.95-.37-1.94-2.64.01-1.61.35-2.82,1-3.62.65-.8,1.36-.88,2.11-.22.68.73,1.14,1.93,1.4,3.58.26,1.66.18,2.98-.26,3.98-.73,1.54-1.26-.2-2.32-1.08Z"/>
      <path class="cls-1" d="M219.08,39.82c.55.89-.8,1.66-1.23,3.01-.43,1.35.3,2.63-.67,3.15-1.07.44-2.04.28-2.91-.48-.87-.76-1.28-1.82-1.23-3.16.08-1.9.87-3.14,2.38-3.72,1.5-.58,2.72-.18,3.66,1.21Z"/>
      <path class="cls-3" d="M181.61,22.54l-5.41,35.68c-.02.16.11.3.28.3h20.31l1.79-3.76"/>
      <path class="cls-2" d="M59.08,25.34l-8.6,5.24s1.82-1.11,1.78-1.1c0,.02-.02.02-.03.02l-11.65,7.1,1.32,9.1.48,5.57.11.86v.1s.07.4.07.4l.42,2.14.41,2.66.36,2.36.27,2.4,2.13,13.9s0,.06.02.11l.25,1.74-3.2,1.82-4.1,1.46-4.51,1.66-.18-1.59s0-.02,0-.05l-2.67-14.61-.3-4.76-.35-2.34s-.17-1.05-.22-1.4c-.04-.24.09-.9-.15-.96-.26-.07-.51.64-.68.86-.02.03-.07.09-.09.11-.32.4-1.28,1.61-1.28,1.61l-1.82,2.31-1.4,1.77-.21.27-6.09,7.33s-2.14,3.08-2.16,3.11l-1.03,1.29-2.59-2.68-4.85-3.97-3.47-2.22,1.3-1.54s.02-.03.03-.05l7.03-9.47,4.38-4.96,2.65-3.35-1.1-6.69-.48-6.18-7.95-9.01-5.88-8.19L0,12.86l9.17-5.56.87,1.2,4.34,6,1.5,2.08.23.32,6.15,8.83s2.39,2.93,2.67,3.35c.02.02.05.07.07.1.08.11.31.58.32.44.01-.32-.19-2.38-.19-2.38l-.08-1.06-.4-5.17c-2.88-1.6-4.62-4.5-5.24-7.86-1.09-5.89,3.89-10.62,9.84-11.16,5.95-.55,11.18,3.58,11.69,9.2.38,4.2-1.97,8.04-5.66,9.96v.04l.18,2.26.22,2.82.1,1.23,1.48-.9,3.95-2.81,4.99-2.64s.04-.02.07-.04l1.09-.66,1.71-1.05-3.52-13.91-1.78-4.66,9.96-.8,3.31,11.36,2.32,10.91.38,1.54c.14.57-.11,1.19-.67,1.53Z"/>
    </g>
  </g>
</svg>