<?xml version="1.0" encoding="UTF-8"?>
<svg id="Layer_2" data-name="Layer 2" xmlns="http://www.w3.org/2000/svg" viewBox="0 0 59.78 82.88">
  <defs>
    <style>
      .cls-1 {
        fill: #c42328;
        stroke-width: 0px;
      }
    </style>
  </defs>
  <g id="Logo1">
    <path class="cls-1" d="M59.08,25.34l-8.6,5.24s1.82-1.11,1.78-1.1c0,.02-.02.02-.03.02l-11.65,7.1,1.32,9.1.48,5.57.11.86v.1s.07.4.07.4l.42,2.14.41,2.66.36,2.36.27,2.4,2.13,13.9s0,.06.02.11l.25,1.74-3.2,1.82-4.1,1.46-4.51,1.66-.18-1.59s0-.02,0-.05l-2.67-14.61-.3-4.76-.35-2.34s-.17-1.05-.22-1.4c-.04-.24.09-.9-.15-.96-.26-.07-.51.64-.68.86-.02.03-.07.09-.09.11-.32.4-1.28,1.61-1.28,1.61l-1.82,2.31-1.4,1.77-.21.27-6.09,7.33s-2.14,3.08-2.16,3.11l-1.03,1.29-2.59-2.68-4.85-3.97-3.47-2.22,1.3-1.54s.02-.03.03-.05l7.03-9.47,4.38-4.96,2.65-3.35-1.1-6.69-.48-6.18-7.95-9.01-5.88-8.19L0,12.86l9.17-5.56.87,1.2,4.34,6,1.5,2.08.23.32,6.15,8.83s2.39,2.93,2.67,3.35c.02.02.05.07.07.1.08.11.31.58.32.44.01-.32-.19-2.38-.19-2.38l-.08-1.06-.4-5.17c-2.88-1.6-4.62-4.5-5.24-7.86-1.09-5.89,3.89-10.62,9.84-11.16,5.95-.55,11.18,3.58,11.69,9.2.38,4.2-1.97,8.04-5.66,9.96v.04l.18,2.26.22,2.82.1,1.23,1.48-.9,3.95-2.81,4.99-2.64s.04-.02.07-.04l1.09-.66,1.71-1.05-3.52-13.91-1.78-4.66,9.96-.8,3.31,11.36,2.32,10.91.38,1.54c.14.57-.11,1.19-.67,1.53Z"/>
  </g>
</svg>